# xmcd
#
# Track frame offsets:
#	150
#	13847
#	26533
#	47067
#	62010
#	77558
#	91623
#	109158
#	125997
#	141068
#	154623
#	171134
#	190976
#	206422
#	222510
#	237628
#	254699
#	276150
#	292853
#	305397
#
# Disc length: 4379 seconds
#
# Revision: 2
# Processed by: cddbd v1.5.2PL0 Copyright (c) Steve Scherf et al.
# Submitted via: EasyCDDAExtractor 15.3.0.1
#
DISCID=22111914
DTITLE=Rocio Durcal - La Absoluta Coleccion
DYEAR=2015
DGENRE=Latin
TTITLE0=Fue Un Placer Conocerte
TTITLE1=Me Nace Del Corazon
TTITLE2=Costumbres
TTITLE3=Se Me Olvido Otra Vez
TTITLE4=No Me Vuelvo A Enamorar
TTITLE5=Te Voy A Olvidar
TTITLE6=Quedate Conmigo Esta Noche
TTITLE7=La Farsante
TTITLE8=La Diferencia
TTITLE9=Ya Te Olvide
TTITLE10=La Gata Bajo La Lluvia
TTITLE11=Como Tu Mujer
TTITLE12=Infiel
TTITLE13=Como Han Pasado Los Años
TTITLE14=Vestida De Blanco
TTITLE15=No Sirvo Para Estar Sin Ti
TTITLE16=Si Te Pudiera Mentir
TTITLE17=Sombras... Nada Mas
TTITLE18=De Que Manera Te Olvido
TTITLE19=Y Nos Dieron Las Diez
EXTD=
EXTT0=
EXTT1=
EXTT2=
EXTT3=
EXTT4=
EXTT5=
EXTT6=
EXTT7=
EXTT8=
EXTT9=
EXTT10=
EXTT11=
EXTT12=
EXTT13=
EXTT14=
EXTT15=
EXTT16=
EXTT17=
EXTT18=
EXTT19=
PLAYORDER=
